<svg xmlns="http://www.w3.org/2000/svg" width="250" height="50" viewBox="0 0 250 50"><g transform="translate(-8 -9)"><rect width="250" height="50" transform="translate(8 9)" fill="#fff"/><g transform="translate(10.003 9.598)"><path d="M28.62,21.53c-.08,7.19,2.72,9.62,9.81,12.33H24.35V28.25H22.6v5.61H7.16a6.321,6.321,0,0,1-2.36-.3c-1.37-.59-2.47-2.5-1.04-7.37,2.62-8.94,11.55-11.76,11.55-11.76s-2.82,6.31-.58,12.33c0,0,5.24-15.83,29.62-21.75,0,.01-15.63,7.44-15.73,16.52M45.19,33.37c-.77-.04-1.23-.09-1.23-.09-14.33-1.89-14.53-10.62-9.71-14.27a23.033,23.033,0,0,1,6.99-3.45s.48-.43-.48-.43c-3.4,0-8.74,2.72-8.74,2.72,1.56-4.66,10.3-9.91,12.23-11.27,0,0-1.45,4.56,1.95,6.7a20.568,20.568,0,0,0,7.57,2.62c5.93,1.07,8.74,5.54,8.64,8.26-.33,9.32-13.21,9.42-17.27,9.22l.04,1.47h3.15c13.96-1.31,18.11-6.34,17.87-10.78-.29-5.11-7.71-8.61-11.17-9.32-3.95-.81-7.66-2.2-8.29-4.63-.53-2.08,1.1-4.77,6.45-6.74a46.532,46.532,0,0,1,9.16-2.3s.96-.13.88-.47C63.17.27,61.41.45,61.41.45,56.94.54,39.44,4.3,27.74,10.47A34.625,34.625,0,0,0,15.31,22.32a12.843,12.843,0,0,1,2.92-9.02s.66-.65.53-.87-.74-.07-.74-.07C8.18,14.39,2.16,21.53.31,27.31c-1.22,3.82,1.31,7.53,4.42,7.53H45.24Z" fill="#231815"/><path d="M26.1,12.98c-.44-4.06-1.25-7.39-1.48-7.14-1.29,1.34-3.57,4.43-5,17.05-.12,1.07-1.05,6.07,3.72,6.17,1.72.03,3.54-.22,3.54-4.13-.01,0-.2-6.56-.78-11.95" fill="#00a85f"/><path d="M73.61.96h9.21v9.67H81.75v-.5H74.63v.5H73.61Zm1.02,8.2h7.12V1.91H74.63Zm4.01-1.69h2.52v.87H75.29V7.47h2.39V5.8H75.74V4.96h1.94V3.56H75.43V2.71h5.52v.86H78.63v1.4h2.08V5.8H78.63V7.47Zm1.52-.03a9.529,9.529,0,0,0-.98-1.18l.67-.34a6.85,6.85,0,0,1,1.01,1.13Z" fill="#231815"/><path d="M84.11,9.12h9.85v1.03H84.11Zm9.54-6.61V3.53H84.47V2.51h3.99V.46l1.33.08c-.01.1-.09.15-.26.18V2.51Zm-6.8,1.5a16.86,16.86,0,0,1,.94,4.37c-.04.01-.09.01-1.06.26a16.633,16.633,0,0,0-.87-4.38Zm5.66.25c-.03.09-.14.15-.3.16a30.063,30.063,0,0,1-1.39,4.47l-.94-.28a30.125,30.125,0,0,0,1.21-4.68Z" fill="#231815"/><path d="M98.82,9.14H96.61v.89h-.9V6.8a5.238,5.238,0,0,1-.51.78,6.248,6.248,0,0,0-.53-.9A11.59,11.59,0,0,0,96.2,1.91H94.88V.98h4.29v.93H97.19a20.572,20.572,0,0,1-.51,2.41h2.14V9.14Zm-.92-.9V5.23H96.61V8.24Zm7.04-3.22V6h-1.22v4.61h-.99V5.99h-1.42a5.951,5.951,0,0,1-2.05,4.63,4.526,4.526,0,0,0-.81-.58,5.142,5.142,0,0,0,1.88-4.05H99.11V5.02h1.25V1.91h-.92V.96h5.31v.95h-1.04V5.02Zm-3.61,0h1.4V1.91h-1.4Z" fill="#231815"/><path d="M113.36,9.2c0,.31.04.36.3.36h.75c.26,0,.3-.19.34-1.45a3.193,3.193,0,0,0,.94.41c-.1,1.56-.36,1.98-1.18,1.98h-1.04c-.91,0-1.19-.29-1.19-1.29V7.31h-2.04c-.43,1.54-1.4,2.66-3.96,3.29a3.145,3.145,0,0,0-.55-.86c2.1-.46,3-1.27,3.41-2.44h-2.72V6.36h2.94a11.631,11.631,0,0,0,.14-1.4c1.17.09,1.24.09,1.32.1-.01.1-.1.16-.26.18-.03.39-.08.76-.13,1.11h2.92V9.2Zm-3.41-6.36c-.02.08-.11.14-.25.16-.35,1.32-.94,2.32-3.4,2.87a2.78,2.78,0,0,0-.54-.82c2.19-.41,2.68-1.17,2.9-2.35Zm-2.83-.26V3.77h-1.03V1.66h4.05V.45l1.31.09c-.01.09-.09.15-.26.17v.95h4.08V3.77h-1.08V2.58Zm4.3.08,1.27.08c-.01.09-.08.15-.25.17V4.46c0,.27.06.31.49.31h1.33c.3,0,.37-.09.4-.64a3.184,3.184,0,0,0,.88.32c-.1.91-.38,1.16-1.16,1.16H112.8c-1.1,0-1.37-.26-1.37-1.15V2.66Z" fill="#231815"/><path d="M121.05,4.67h-3.09V10.6h-1.01V.9h4.09V4.67Zm-.96-3h-2.12v.74h2.12Zm-2.12,2.24h2.12v-.8h-2.12Zm6.42,4.12h-1.36V10.4h-.92V8.03h-1.34a3.677,3.677,0,0,1-1.44,2.46,3.211,3.211,0,0,0-.66-.61,2.735,2.735,0,0,0,1.2-1.85h-1.25V7.17h1.29V6.13h-1.09V5.31h5.36v.82h-1.15V7.17h1.36Zm-3.6-.86h1.31V6.13h-1.31ZM126.09.9V9.33c0,1.03-.37,1.26-2.21,1.23a3.263,3.263,0,0,0-.32-1.02c.28.01.56.01.8.01.65,0,.73,0,.73-.24V4.69h-3.17V.9Zm-1.01.77h-2.19v.74h2.19Zm-2.19,2.26h2.19V3.11h-2.19Z" fill="#231815"/><path d="M135.33,5.24h-1.17V6.7h2.5v.94h-2.5V9.16c0,.38.06.43.41.43h1.07c.32,0,.38-.22.42-1.32a2.605,2.605,0,0,0,.92.4c-.1,1.43-.38,1.84-1.24,1.84H134.4c-1.04,0-1.3-.3-1.3-1.35V7.65h-1.75c-.21,1.18-.9,2.27-2.99,3a3.4,3.4,0,0,0-.66-.81c1.71-.56,2.36-1.35,2.59-2.19h-2.34V6.71h2.46V5.24h-1.07V4.9a9.066,9.066,0,0,1-1.53.93,4.225,4.225,0,0,0-.63-.78,7.017,7.017,0,0,0,2.01-1.31,12.064,12.064,0,0,0-1.22-1.06l.65-.54a14.831,14.831,0,0,1,1.2.96,6.66,6.66,0,0,0,.89-1.3h-2.53V.9h3.11l.16-.04c.31.16.52.25.72.35a.353.353,0,0,1-.14.13,7.548,7.548,0,0,1-1.95,2.93h4.59A10.009,10.009,0,0,1,132.43.75l.91-.27a8.093,8.093,0,0,0,.63,1.29A11.054,11.054,0,0,0,135.16.6l.89.66a.2.2,0,0,1-.16.06.34.34,0,0,1-.1-.01,15.3,15.3,0,0,1-1.37,1.13,8.545,8.545,0,0,0,.62.73,11.535,11.535,0,0,0,1.43-1.31l.88.64c-.04.07-.14.09-.26.07a18.185,18.185,0,0,1-1.46,1.16,6.755,6.755,0,0,0,1.91,1.15,4.455,4.455,0,0,0-.72.89,7.086,7.086,0,0,1-1.46-.9v.37ZM133.1,6.71V5.24h-1.68V6.7h1.68Z" fill="#231815"/><path d="M138.59,3.49a9.317,9.317,0,0,1,2.17,1.02l-.56.87a8.633,8.633,0,0,0-2.13-1.09Zm-.19,6.3a31.364,31.364,0,0,0,1.96-3.5c.7.59.74.63.77.66a35.462,35.462,0,0,1-1.72,3.25.3.3,0,0,1,.06.18.269.269,0,0,1-.05.15Zm.83-9.28a8.676,8.676,0,0,1,2.13,1.13l-.59.85a8.284,8.284,0,0,0-2.1-1.2Zm8.97,4.45v.97h-4.16l.45.14c-.04.09-.14.13-.28.14a25.085,25.085,0,0,1-1.2,2.78l3.19-.18c-.34-.5-.7-1-1.06-1.43l.88-.46a13.351,13.351,0,0,1,2.11,3.13l-.96.54a9.556,9.556,0,0,0-.42-.88c-1.9.16-3.85.3-5.12.39a.227.227,0,0,1-.18.16l-.39-1.18.84-.03a22.49,22.49,0,0,0,1.23-3.12h-2.09V4.96h2.98V3.12h-2.44V2.14h2.44V.46l1.34.09a.292.292,0,0,1-.28.24V2.14h2.51v.99h-2.51V4.97h3.12Z" fill="#231815"/><path d="M154.67.87c-.01.11-.11.16-.27.19l-.03.4c.12,1.63.79,6.32,4.82,8.16a2.915,2.915,0,0,0-.78.88,8.9,8.9,0,0,1-4.5-5.94,9.167,9.167,0,0,1-4.24,5.93,3.533,3.533,0,0,0-.86-.8c4.44-2.34,4.37-7.48,4.45-8.93Z" fill="#231815"/><path d="M73.17,13.29H93.89V35.03H91.48V33.91H75.46v1.12H73.17Zm2.29,18.45H91.48V15.43H75.46Zm9.01-3.8h5.67v1.95H76.94V27.94h5.38V24.17H77.96V22.29h4.36V19.15H77.26V17.23H89.68v1.92H84.47v3.14h4.67v1.88H84.47Zm3.43-.07a17.814,17.814,0,0,0-2.22-2.65l1.51-.75A15.968,15.968,0,0,1,89.45,27Z" fill="#231815"/><path d="M96.8,31.64h22.15v2.31H96.8Zm21.44-14.87v2.29H97.6V16.77h8.98v-4.6l2.99.17c-.02.22-.19.34-.58.41v4.02Zm-15.28,3.38a38.85,38.85,0,0,1,2.12,9.84c-.1.02-.19.02-2.39.58a38.08,38.08,0,0,0-1.95-9.86Zm12.73.56a.75.75,0,0,1-.68.37,69.353,69.353,0,0,1-3.12,10.05l-2.12-.63a66.4,66.4,0,0,0,2.73-10.52Z" fill="#231815"/><path d="M128.77,27.46l.22,1.97c-2.68.71-5.5,1.44-7.28,1.88a.478.478,0,0,1-.39.41l-.73-2.46c.9-.17,2.02-.41,3.24-.68V23.05h-2.65V21h2.65V15.99h-2.9V13.92h7.86v2.07h-2.9V21h2.48v2.05h-2.48v5.06Zm8.33.41a10.146,10.146,0,0,0,1.53,2.17,22.657,22.657,0,0,0,2.85-2.02l1.85,1.41a.58.58,0,0,1-.56.12c-.76.44-2.02,1.14-2.99,1.58a10.918,10.918,0,0,0,3.82,2.04A9.546,9.546,0,0,0,142.14,35a12.586,12.586,0,0,1-6.48-6.04l-.15.12v5.87h-2.19V30.79a24.658,24.658,0,0,1-5.28,2.82,9.531,9.531,0,0,0-1.34-1.63,23.738,23.738,0,0,0,7.55-4.11h-4.09V22.42h11.66v5.45H137.1Zm-8.65-8.47h15.24v1.88H128.45ZM142.48,13v5.28H129.55V13Zm-9.11,3.65V14.6h-1.95v2.05Zm-1.17,7.57v1.87h7.45V24.22Zm4.72-7.57V14.6H134.9v2.05Zm3.61,0V14.6h-2.05v2.05Z" fill="#231815"/><path d="M150.3,27.04l2.6-.9c.1.58.22,1.14.39,2.02-2.51,1.02-5.18,2.09-6.91,2.73a.49.49,0,0,1-.32.44l-1.07-2.58c.85-.24,1.95-.58,3.14-.97v-7.5h-2.65V18.11h2.65v-5.7l2.7.15c-.02.22-.17.34-.53.39v5.16h2.39v2.17H150.3v6.76Zm9.05,2.17c-.02.19-.19.32-.51.37-.68,2.46-1.92,4.36-6.55,5.5a6.976,6.976,0,0,0-1.27-1.97c4.09-.73,5.19-2.07,5.65-4.19Zm8.67-10.83V20.3H152.78V18.38h3.77a12.16,12.16,0,0,0-.85-2.22l1.22-.27h-3.41V14.04h5.62v-1.9l2.85.17c-.02.19-.17.34-.56.41v1.31h6.06v1.85h-3.16l1.19.32c-.07.17-.27.27-.56.27-.27.54-.66,1.27-1.02,1.9h4.09ZM163.47,32.2c0,.56.07.66.61.66h1.58c.49,0,.58-.27.66-2.31a5.976,5.976,0,0,0,1.95.8c-.22,2.8-.78,3.48-2.36,3.48h-2.17c-2.02,0-2.48-.63-2.48-2.6V28.75h-6.94V21.42h12.22v7.33h-2.65a1.035,1.035,0,0,1-.41.15v3.3Zm-6.99-9.3v1.46h7.79V22.9Zm0,2.88v1.48h7.79V25.78Zm5.41-7.53a15.842,15.842,0,0,0,.92-2.36h-5.04a9.813,9.813,0,0,1,.93,2.34l-.61.15h4.14Z" fill="#231815"/><path d="M178.6,31.69h-4.97v2h-2.02V26.44a12.858,12.858,0,0,1-1.14,1.75,12.751,12.751,0,0,0-1.19-2.02c1.7-2.31,2.8-6.45,3.43-10.74h-2.97V13.34h9.64v2.09h-4.46a48.758,48.758,0,0,1-1.14,5.43h4.82V31.69Zm-2.07-2.02V22.9h-2.9v6.77Zm15.82-7.25v2.19H189.6V34.98h-2.22V24.61h-3.19c-.19,3.75-1.17,7.72-4.6,10.42a10.314,10.314,0,0,0-1.82-1.31c3.16-2.41,4.04-5.89,4.24-9.1h-2.75V22.43h2.8V15.44h-2.07V13.3h11.95v2.14H189.6v6.99h2.75Zm-8.11,0h3.14V15.43h-3.14Z" fill="#231815"/><path d="M211.3,31.81c0,.71.1.8.68.8h1.68c.58,0,.68-.44.75-3.26a6.653,6.653,0,0,0,2.12.92c-.22,3.51-.8,4.46-2.65,4.46h-2.34c-2.05,0-2.68-.66-2.68-2.9V27.57h-4.58c-.97,3.46-3.14,5.99-8.91,7.4a6.578,6.578,0,0,0-1.24-1.92c4.72-1.05,6.74-2.85,7.67-5.48h-6.11V25.43h6.62c.17-.97.24-2.02.32-3.14,2.63.19,2.8.19,2.97.22-.02.22-.22.37-.58.41-.07.88-.17,1.7-.29,2.51h6.57Zm-7.67-14.29a.611.611,0,0,1-.56.36c-.78,2.97-2.12,5.21-7.64,6.45a6.008,6.008,0,0,0-1.22-1.85c4.92-.92,6.04-2.63,6.52-5.28Zm-6.35-.58v2.68h-2.31V14.87h9.1V12.14l2.94.19c-.02.19-.19.34-.58.39v2.14h9.18v4.75h-2.43V16.93h-15.9Zm9.66.17,2.85.17c-.02.19-.17.34-.56.39v3.48c0,.61.15.71,1.1.71h2.99c.68,0,.83-.19.9-1.44a7.351,7.351,0,0,0,1.97.73c-.22,2.05-.85,2.61-2.6,2.61h-3.55c-2.48,0-3.09-.58-3.09-2.58V17.11Z" fill="#231815"/><path d="M228.79,25.85h-7.01c-.1,3.02-.58,6.65-2.19,9.15a9.189,9.189,0,0,0-1.8-1.41c1.68-2.65,1.83-6.45,1.83-9.28V17.83h9.18v8.02Zm.7-12.44v2.12H218.44V13.41Zm-2.92,6.5H221.8v3.87h4.77Zm14.66.63v2.24h-2.6v12.2h-2.29V22.78h-3.65c-.15,3.82-.97,8.67-4.31,12.12a5.851,5.851,0,0,0-1.7-1.58c3.41-3.53,3.77-8.38,3.77-12.08v-6.6l1.48.36a31.245,31.245,0,0,0,6.84-2.56l2.17,1.85c-.1.1-.24.1-.58.1a43.163,43.163,0,0,1-7.64,2.48v3.65h8.51Z" fill="#231815"/><path d="M8.24,47.26H6.8L4.32,42.85a29.35,29.35,0,0,1-1.56-3.19l-.05.01c.07,1.19.1,2.41.1,4.07v3.52H1.49V37.83H3.04L5.5,42.19a27.136,27.136,0,0,1,1.53,3.12l.04-.01c-.11-1.28-.15-2.49-.15-3.99V37.84H8.24Z" fill="#231815"/><path d="M14.89,45.64a8.79,8.79,0,0,0,.1,1.61H13.7l-.1-.79h-.04a2.3,2.3,0,0,1-1.9.92,1.921,1.921,0,0,1-2-1.98c0-1.69,1.47-2.53,3.79-2.53,0-.5,0-1.51-1.37-1.51a3.072,3.072,0,0,0-1.65.47l-.3-.95a4.207,4.207,0,0,1,2.19-.57c2,0,2.55,1.32,2.55,2.76v2.57Zm-1.4-1.8c-1.12,0-2.41.21-2.41,1.42a.967.967,0,0,0,1,1.08,1.385,1.385,0,0,0,1.42-1.38V43.84Z" fill="#231815"/><path d="M16.96,39.24l1.42-.44v1.68H20v1.07H18.39v3.44c0,.84.26,1.24.86,1.24a2.058,2.058,0,0,0,.63-.09l.05,1.1a3.142,3.142,0,0,1-1.11.16,1.717,1.717,0,0,1-1.34-.52,2.54,2.54,0,0,1-.51-1.82V41.55H16V40.48h.96Z" fill="#231815"/><path d="M21.94,39.42a.835.835,0,1,1,.84-.83A.8.8,0,0,1,21.94,39.42Zm.71,7.84H21.22v-6.8h1.43Z" fill="#231815"/><path d="M30.34,43.81c0,2.54-1.65,3.59-3.18,3.59-1.76,0-3.11-1.29-3.11-3.49,0-2.29,1.4-3.59,3.2-3.59C29.12,40.32,30.34,41.73,30.34,43.81Zm-3.13-2.42c-1.22,0-1.69,1.31-1.69,2.48,0,1.33.63,2.45,1.67,2.45s1.68-1.12,1.68-2.48C28.87,42.72,28.41,41.39,27.21,41.39Z" fill="#231815"/><path d="M37.36,47.26H35.93V43.28c0-.96-.32-1.77-1.29-1.77a1.527,1.527,0,0,0-1.45,1.66v4.09H31.76V42.38c0-.75-.03-1.33-.05-1.91h1.24l.07,1.01h.04a2.321,2.321,0,0,1,2.06-1.16c1.06,0,2.24.69,2.24,2.78v4.16Z" fill="#231815"/><path d="M43.91,45.64a8.79,8.79,0,0,0,.1,1.61H42.72l-.1-.79h-.04a2.3,2.3,0,0,1-1.9.92,1.921,1.921,0,0,1-2-1.98c0-1.69,1.47-2.53,3.79-2.53,0-.5,0-1.51-1.37-1.51a3.072,3.072,0,0,0-1.65.47l-.3-.95a4.207,4.207,0,0,1,2.19-.57c2,0,2.55,1.32,2.55,2.76v2.57Zm-1.4-1.8c-1.12,0-2.41.21-2.41,1.42a.967.967,0,0,0,1,1.08,1.385,1.385,0,0,0,1.42-1.38V43.84Z" fill="#231815"/><path d="M47.13,47.26H45.7V37.38h1.43Z" fill="#231815"/><path d="M51.78,37.83h1.43v9.43H51.78Z" fill="#231815"/><path d="M60.7,47.26H59.27V43.28c0-.96-.32-1.77-1.29-1.77a1.527,1.527,0,0,0-1.45,1.66v4.09H55.1V42.38c0-.75-.03-1.33-.05-1.91h1.24l.07,1.01h.04a2.321,2.321,0,0,1,2.06-1.16c1.06,0,2.24.69,2.24,2.78v4.16Z" fill="#231815"/><path d="M65.87,41.75a2.5,2.5,0,0,0-1.29-.38c-.64,0-.99.37-.99.83s.31.7,1.13,1.06c1.12.45,1.71,1.07,1.71,2.06,0,1.31-1,2.08-2.54,2.08a3.666,3.666,0,0,1-1.85-.46l.32-1.06a3.263,3.263,0,0,0,1.55.46c.76,0,1.13-.37,1.13-.89s-.28-.8-1.1-1.15c-1.21-.48-1.74-1.16-1.74-1.95a2.123,2.123,0,0,1,2.35-2.03,3.342,3.342,0,0,1,1.61.39Z" fill="#231815"/><path d="M68.11,39.24l1.42-.44v1.68h1.61v1.07H69.53v3.44c0,.84.26,1.24.86,1.24a2.058,2.058,0,0,0,.63-.09l.05,1.1a3.142,3.142,0,0,1-1.11.16,1.717,1.717,0,0,1-1.34-.52,2.54,2.54,0,0,1-.51-1.82V41.55h-.96V40.48h.96Z" fill="#231815"/><path d="M73.08,39.42a.835.835,0,0,1,.01-1.67.835.835,0,0,1-.01,1.67Zm.72,7.84H72.37v-6.8H73.8Z" fill="#231815"/><path d="M75.91,39.24l1.42-.44v1.68h1.61v1.07H77.33v3.44c0,.84.26,1.24.86,1.24a2.058,2.058,0,0,0,.63-.09l.05,1.1a3.142,3.142,0,0,1-1.11.16,1.717,1.717,0,0,1-1.34-.52,2.591,2.591,0,0,1-.5-1.82V41.55h-.96V40.48h.96V39.24Z" fill="#231815"/><path d="M85.69,45.31c0,.76.04,1.4.06,1.95H84.5l-.07-.99h-.04a2.359,2.359,0,0,1-2.05,1.12c-1.17,0-2.19-.73-2.19-2.89V40.46h1.43v3.81c0,1.17.33,1.95,1.27,1.95a1.459,1.459,0,0,0,1.42-1.54v-4.2H85.7v4.83Z" fill="#231815"/><path d="M87.81,39.24l1.42-.44v1.68h1.61v1.07H89.23v3.44c0,.84.26,1.24.86,1.24a2.058,2.058,0,0,0,.63-.09l.05,1.1a3.142,3.142,0,0,1-1.11.16,1.717,1.717,0,0,1-1.34-.52,2.591,2.591,0,0,1-.5-1.82V41.55h-.96V40.48h.96V39.24Z" fill="#231815"/><path d="M97.03,46.99a5.328,5.328,0,0,1-2.16.41c-2.05,0-3.23-1.37-3.23-3.44,0-2.02,1.13-3.63,3.06-3.63,1.91,0,2.67,1.59,2.67,3.27a3.541,3.541,0,0,1-.04.6H93.02a1.934,1.934,0,0,0,2.06,2.11,4.3,4.3,0,0,0,1.71-.32Zm-1.01-3.82c.01-.81-.32-1.82-1.42-1.82-1.05,0-1.49,1.03-1.56,1.82Z" fill="#231815"/><path d="M101.69,40.47a3.5,3.5,0,0,1,.76-2.6,2.4,2.4,0,0,1,1.65-.63,2.8,2.8,0,0,1,1.04.19l-.15,1.1a1.883,1.883,0,0,0-.73-.14c-.89,0-1.16.8-1.16,1.71v.37h1.49v1.07h-1.48v5.72h-1.43V41.54h-.91V40.47h.92Z" fill="#231815"/><path d="M111.45,43.81c0,2.54-1.65,3.59-3.18,3.59-1.76,0-3.11-1.29-3.11-3.49,0-2.29,1.4-3.59,3.2-3.59C110.23,40.32,111.45,41.73,111.45,43.81Zm-3.13-2.42c-1.22,0-1.69,1.31-1.69,2.48,0,1.33.63,2.45,1.67,2.45s1.68-1.12,1.68-2.48C109.98,42.72,109.52,41.39,108.32,41.39Z" fill="#231815"/><path d="M116.27,41.73a2.5,2.5,0,0,0-.42-.04c-.96,0-1.56.79-1.56,1.97v3.6h-1.43V42.54c0-.79-.01-1.44-.05-2.07h1.24l.05,1.24h.05a1.951,1.951,0,0,1,1.76-1.39,1.42,1.42,0,0,1,.36.04v1.37Z" fill="#231815"/><path d="M125.35,47.26h-5.14V37.83h4.93v1.2h-3.5v2.72h3.3v1.18h-3.3v3.13h3.71Z" fill="#231815"/><path d="M132.33,47.26H130.9V43.28c0-.96-.32-1.77-1.29-1.77a1.527,1.527,0,0,0-1.45,1.66v4.09h-1.43V42.38c0-.75-.02-1.33-.05-1.91h1.24l.07,1.01h.04a2.334,2.334,0,0,1,2.06-1.16c1.06,0,2.24.69,2.24,2.78v4.16Z" fill="#231815"/><path d="M139.56,40.47l-2.44,6.79h-1.37l-2.38-6.79h1.54l1.11,3.61c.18.59.33,1.16.45,1.72h.04c.12-.57.28-1.12.46-1.71l1.1-3.62h1.49Z" fill="#231815"/><path d="M141.33,39.42a.835.835,0,1,1,.84-.83A.81.81,0,0,1,141.33,39.42Zm.71,7.84h-1.43v-6.8h1.43Z" fill="#231815"/><path d="M147.29,41.73a2.5,2.5,0,0,0-.42-.04c-.96,0-1.56.79-1.56,1.97v3.6h-1.43V42.54c0-.79-.01-1.44-.05-2.07h1.24l.05,1.24h.05a1.951,1.951,0,0,1,1.76-1.39,1.42,1.42,0,0,1,.36.04v1.37Z" fill="#231815"/><path d="M154.24,43.81c0,2.54-1.65,3.59-3.18,3.59-1.76,0-3.11-1.29-3.11-3.49,0-2.29,1.4-3.59,3.2-3.59C153.02,40.32,154.24,41.73,154.24,43.81Zm-3.12-2.42c-1.22,0-1.69,1.31-1.69,2.48,0,1.33.63,2.45,1.67,2.45s1.68-1.12,1.68-2.48C152.78,42.72,152.31,41.39,151.12,41.39Z" fill="#231815"/><path d="M161.26,47.26h-1.43V43.28c0-.96-.32-1.77-1.29-1.77a1.527,1.527,0,0,0-1.45,1.66v4.09h-1.43V42.38c0-.75-.03-1.33-.05-1.91h1.24l.07,1.01h.04a2.321,2.321,0,0,1,2.06-1.16c1.06,0,2.24.69,2.24,2.78v4.16Z" fill="#231815"/><path d="M172.37,47.26h-1.4V43.38c0-1.13-.37-1.89-1.23-1.89a1.445,1.445,0,0,0-1.32,1.58v4.19h-1.4V43.17c0-.95-.36-1.68-1.18-1.68a1.5,1.5,0,0,0-1.37,1.65v4.11h-1.4V42.37c0-.76-.02-1.33-.05-1.91h1.23l.07,1h.04a2.208,2.208,0,0,1,1.98-1.15,1.855,1.855,0,0,1,1.8,1.24h.02a2.348,2.348,0,0,1,2.1-1.24c1.01,0,2.12.69,2.12,2.83v4.12Z" fill="#231815"/><path d="M179.11,46.99a5.328,5.328,0,0,1-2.16.41c-2.05,0-3.23-1.37-3.23-3.44,0-2.02,1.13-3.63,3.05-3.63s2.67,1.59,2.67,3.27a3.541,3.541,0,0,1-.04.6h-4.31a1.934,1.934,0,0,0,2.06,2.11,4.3,4.3,0,0,0,1.71-.32Zm-1.01-3.82c.01-.81-.32-1.82-1.42-1.82-1.05,0-1.49,1.03-1.56,1.82Z" fill="#231815"/><path d="M186.44,47.26h-1.43V43.28c0-.96-.32-1.77-1.29-1.77a1.527,1.527,0,0,0-1.45,1.66v4.09h-1.43V42.38c0-.75-.02-1.33-.05-1.91h1.24l.07,1.01h.04a2.334,2.334,0,0,1,2.06-1.16c1.06,0,2.24.69,2.24,2.78v4.16Z" fill="#231815"/><path d="M188.52,39.24l1.42-.44v1.68h1.61v1.07h-1.61v3.44c0,.84.26,1.24.86,1.24a2.058,2.058,0,0,0,.63-.09l.05,1.1a3.142,3.142,0,0,1-1.11.16,1.717,1.717,0,0,1-1.34-.52,2.54,2.54,0,0,1-.51-1.82V41.55h-.96V40.48h.96V39.24Z" fill="#231815"/><path d="M197.53,45.64a8.789,8.789,0,0,0,.1,1.61h-1.29l-.1-.79h-.04a2.3,2.3,0,0,1-1.9.92,1.921,1.921,0,0,1-2-1.98c0-1.69,1.47-2.53,3.79-2.53,0-.5,0-1.51-1.37-1.51a3.072,3.072,0,0,0-1.65.47l-.29-.95a4.207,4.207,0,0,1,2.19-.57c2,0,2.55,1.32,2.55,2.76v2.57Zm-1.39-1.8c-1.12,0-2.42.21-2.42,1.42a.967.967,0,0,0,1,1.08,1.385,1.385,0,0,0,1.42-1.38Z" fill="#231815"/><path d="M200.76,47.26h-1.43V37.38h1.43Z" fill="#231815"/><path d="M209.82,39.3a3.512,3.512,0,0,0-1.67-.42c-1.12,0-1.59.65-1.59,1.26,0,.8.53,1.19,1.72,1.71,1.52.67,2.24,1.49,2.24,2.78,0,1.58-1.17,2.76-3.29,2.76a4.569,4.569,0,0,1-2.28-.57l.32-1.19a4.119,4.119,0,0,0,2.05.55c1.12,0,1.75-.58,1.75-1.43,0-.8-.48-1.29-1.6-1.76-1.4-.57-2.35-1.42-2.35-2.7,0-1.49,1.2-2.61,3.07-2.61a4.338,4.338,0,0,1,1.98.43Z" fill="#231815"/><path d="M212.25,39.24l1.42-.44v1.68h1.61v1.07h-1.61v3.44c0,.84.26,1.24.86,1.24a2.058,2.058,0,0,0,.63-.09l.05,1.1a3.142,3.142,0,0,1-1.11.16,1.717,1.717,0,0,1-1.34-.52,2.591,2.591,0,0,1-.5-1.82V41.55h-.96V40.48h.96V39.24Z" fill="#231815"/><path d="M222.03,45.31c0,.76.04,1.4.06,1.95h-1.26l-.07-.99h-.04a2.359,2.359,0,0,1-2.05,1.12c-1.17,0-2.19-.73-2.19-2.89V40.46h1.43v3.81c0,1.17.33,1.95,1.27,1.95a1.459,1.459,0,0,0,1.42-1.54v-4.2h1.43v4.83Z" fill="#231815"/><path d="M229.53,45.45c0,.61.02,1.34.05,1.81h-1.26l-.07-1.06h-.04a2.272,2.272,0,0,1-2.06,1.2c-1.54,0-2.71-1.37-2.71-3.46,0-2.3,1.32-3.61,2.83-3.61a1.987,1.987,0,0,1,1.8.91h.03V37.38h1.43Zm-1.43-2.23a1.58,1.58,0,0,0-1.5-1.76c-1.1,0-1.7,1.08-1.7,2.43,0,1.33.59,2.35,1.68,2.35a1.622,1.622,0,0,0,1.53-1.76V43.22Z" fill="#231815"/><path d="M232.06,39.42a.835.835,0,1,1,.84-.83A.8.8,0,0,1,232.06,39.42Zm.72,7.84h-1.43v-6.8h1.43Z" fill="#231815"/><path d="M239.58,46.99a5.328,5.328,0,0,1-2.16.41c-2.05,0-3.23-1.37-3.23-3.44,0-2.02,1.13-3.63,3.06-3.63,1.91,0,2.67,1.59,2.67,3.27a3.541,3.541,0,0,1-.04.6h-4.31a1.934,1.934,0,0,0,2.06,2.11,4.3,4.3,0,0,0,1.71-.32Zm-1.01-3.82c.01-.81-.32-1.82-1.42-1.82-1.05,0-1.49,1.03-1.56,1.82Z" fill="#231815"/><path d="M244.67,41.75a2.5,2.5,0,0,0-1.29-.38c-.64,0-.99.37-.99.83s.31.7,1.13,1.06c1.12.45,1.71,1.07,1.71,2.06,0,1.31-1,2.08-2.54,2.08a3.666,3.666,0,0,1-1.85-.46l.32-1.06a3.263,3.263,0,0,0,1.55.46c.76,0,1.13-.37,1.13-.89s-.28-.8-1.1-1.15c-1.21-.48-1.74-1.16-1.74-1.95a2.123,2.123,0,0,1,2.35-2.03,3.342,3.342,0,0,1,1.61.39Z" fill="#231815"/></g></g></svg>